<svg xmlns="http://www.w3.org/2000/svg" viewBox="0 0 1024 1024" role="img" aria-label="solstone">
  <title>solstone</title>
  <defs>
    <radialGradient id="bg" cx="50%" cy="48%" r="70%">
      <stop offset="0%" stop-color="#FEFCF8"/>
      <stop offset="45%" stop-color="#FAF3E4"/>
      <stop offset="100%" stop-color="#EDE0C4"/>
    </radialGradient>
    <radialGradient id="glow" cx="50%" cy="50%" r="50%">
      <stop offset="0%" stop-color="#F5C740" stop-opacity="0.16"/>
      <stop offset="55%" stop-color="#F0A030" stop-opacity="0.05"/>
      <stop offset="100%" stop-color="#F0A030" stop-opacity="0"/>
    </radialGradient>
  </defs>
  <rect width="1024" height="1024" fill="url(#bg)"/>
  <circle cx="512" cy="512" r="440" fill="url(#glow)"/>
  <g transform="translate(26.55, 26.55) scale(30.34)">
    <!-- rays from sol-ring.svg -->
    <path fill="#F5C740" d="M16.0 2.5 L18.6 7.3 A9.1 9.1 0 0 0 13.4 7.3 Z M23.9 5.1 L23.2 10.5 A9.1 9.1 0 0 0 19.0 7.4 Z M28.8 11.8 L25.1 15.8 A9.1 9.1 0 0 0 23.5 10.9 Z M28.8 20.2 L23.5 21.1 A9.1 9.1 0 0 0 25.1 16.2 Z M23.9 26.9 L19.0 24.6 A9.1 9.1 0 0 0 23.2 21.5 Z M16.0 29.5 L13.4 24.7 A9.1 9.1 0 0 0 18.6 24.7 Z M8.1 26.9 L8.8 21.5 A9.1 9.1 0 0 0 13.0 24.6 Z M3.2 20.2 L6.9 16.2 A9.1 9.1 0 0 0 8.5 21.1 Z M3.2 11.8 L8.5 10.9 A9.1 9.1 0 0 0 6.9 15.8 Z M8.1 5.1 L13.0 7.4 A9.1 9.1 0 0 0 8.8 10.5 Z"/>
    <!-- ring -->
    <circle cx="16" cy="16" r="8.0" fill="none" stroke="#E8923A" stroke-width="0.85"/>
  </g>
</svg>
